# xmcd
#
# Track frame offsets:
#	150
#	13654
#	28050
#	42301
#	57766
#	73219
#	86961
#	101283
#	112344
#	125752
#	140014
#	157230
#	170785
#	185047
#	198795
#	213238
#	226578
#	244098
#
# Disc length: 3441 seconds
#
# Revision: 0
# Processed by: cddbd v1.5.2PL0 Copyright (c) Steve Scherf et al.
# Submitted via: EasyCDDAExtractor 16.0.6.1
#
DISCID=0e0d6f12
DTITLE=Συλλογικός δίσκος - Τα προπολεμικά δημοτικά 01
DYEAR=2009
DGENRE=Παραδοσιακή
TTITLE0=Παπαδόπουλος Γιώργος - Aπόψε είδα στον ύπνο μου [1950, κλ. Γιώργος Ανε
TTITLE0=στόπουλος]
TTITLE1=Παππάς Βαγγέλης - Όλγα [1949, κλ. Βάϊος Μαλλιάρας]
TTITLE2=Νάκος Γιώργος - Κλείσαν οι στράτες του Μωριά [1936, κλ. Απόστολος Σταμ
TTITLE2=έλος]
TTITLE3=Παπασιδέρης Γιώργος - Μαριωρή του μυλωνά [Ε. Τασσόπουλος, κλ. Γ. Ανεστ
TTITLE3=όπουλος]
TTITLE4=Μηττάκη Γεωργία - Όποιος αγαπάει πεθαίνει [1946, κλ. Γ. Ανεστόπουλος]
TTITLE5=Μηττάκη Γεωργία - Τι έχεις Ρίνα κι αρρωσταίνεις [1946, κλ. Γ. Ανεστόπο
TTITLE5=υλος]
TTITLE6=Παπασιδέρης Γιώργος - Οι δάφνες [κλ. Χαρ. Μαργέλης]
TTITLE7=Καλλίνικος Δημήτρης ή Αραπάκης - Τριγώνα [1929]
TTITLE8=Καλλίνικος Δημήτρης ή Αραπάκης - Έβγα Γκόλφω στο βουνό [1932]
TTITLE9=Αμπατζή Ρίτα - Βαγγελίτσα [1939]
TTITLE10=Παπαγκίκα Μαρίκα - Νταβέλης [1922]
TTITLE11=Καλλίνικος Δημήτρης ή Αραπάκης - Γαλιάνδρα [1932]
TTITLE12=Αμπατζή Ρίτα - Μιά κοκκινοφορεμένη [1936]
TTITLE13=Καλλίνικος Δημήτρης ή Αραπάκης - Μα την Αγιά Παρασκευή [1932]
TTITLE14=Παπασιδέρης Γιώργος - Εσείς πουλιά του κάμπου [1939]
TTITLE15=Καλλίνικος Δημήτρης ή Αραπάκης - Μπάτε κορίτσια στο χορό [1928]
TTITLE16=Παπαγκίκα Μαρίκα - Τα κομμένα τα μαλιά σου [1926]
TTITLE17=Διαμαντίδης Αντώνης ή Νταλγκάς - Μπαρμπα Γιαννακάκης [1936] 
EXTD=
EXTT0=
EXTT1=
EXTT2=
EXTT3=
EXTT4=
EXTT5=
EXTT6=
EXTT7=
EXTT8=
EXTT9=
EXTT10=
EXTT11=
EXTT12=
EXTT13=
EXTT14=
EXTT15=
EXTT16=
EXTT17=
PLAYORDER=
